<?xml version="1.0" encoding="UTF-8" standalone="no"?>
<!-- Created with Inkscape (http://www.inkscape.org/) -->

<svg
   xmlns:dc="http://purl.org/dc/elements/1.1/"
   xmlns:cc="http://creativecommons.org/ns#"
   xmlns:rdf="http://www.w3.org/1999/02/22-rdf-syntax-ns#"
   xmlns:svg="http://www.w3.org/2000/svg"
   xmlns="http://www.w3.org/2000/svg"
   xmlns:xlink="http://www.w3.org/1999/xlink"
   xmlns:sodipodi="http://sodipodi.sourceforge.net/DTD/sodipodi-0.dtd"
   xmlns:inkscape="http://www.inkscape.org/namespaces/inkscape"
   width="1800"
   height="500"
   id="svg2"
   version="1.1"
   inkscape:version="0.48.0 r9654"
   sodipodi:docname="evolution 1.svg">
  <defs
     id="defs4">
    <linearGradient
       inkscape:collect="always"
       id="linearGradient4718">
      <stop
         style="stop-color:#b3b3b3;stop-opacity:1"
         offset="0"
         id="stop4720" />
      <stop
         style="stop-color:#ffffff;stop-opacity:1"
         offset="1"
         id="stop4722" />
    </linearGradient>
    <linearGradient
       inkscape:collect="always"
       id="linearGradient4708">
      <stop
         style="stop-color:#ffffff;stop-opacity:1;"
         offset="0"
         id="stop4710" />
      <stop
         style="stop-color:#ffffff;stop-opacity:0;"
         offset="1"
         id="stop4712" />
    </linearGradient>
    <linearGradient
       inkscape:collect="always"
       xlink:href="#linearGradient4718"
       id="linearGradient4724"
       x1="511.34"
       y1="-204.91789"
       x2="502.67322"
       y2="596.75922"
       gradientUnits="userSpaceOnUse"
       gradientTransform="matrix(0.9302842,0,0,0.62717737,180.26197,398.82421)" />
    <linearGradient
       inkscape:collect="always"
       xlink:href="#linearGradient4708"
       id="linearGradient3390"
       gradientUnits="userSpaceOnUse"
       gradientTransform="matrix(0.91089118,0,0,0.63865382,145.3325,194.85067)"
       x1="750.75842"
       y1="1319.9502"
       x2="750.75836"
       y2="696.86609" />
  </defs>
  <sodipodi:namedview
     id="base"
     pagecolor="#ffffff"
     bordercolor="#666666"
     borderopacity="1.0"
     inkscape:pageopacity="0.0"
     inkscape:pageshadow="2"
     inkscape:zoom="0.32635272"
     inkscape:cx="1416.7204"
     inkscape:cy="298.85881"
     inkscape:document-units="px"
     inkscape:current-layer="layer1"
     showgrid="false"
     inkscape:window-width="1280"
     inkscape:window-height="964"
     inkscape:window-x="-4"
     inkscape:window-y="-4"
     inkscape:window-maximized="1"
     borderlayer="true"
     width="1200px" />
  <metadata
     id="metadata7">
    <rdf:RDF>
      <cc:Work
         rdf:about="">
        <dc:format>image/svg+xml</dc:format>
        <dc:type
           rdf:resource="http://purl.org/dc/dcmitype/StillImage" />
        <dc:title></dc:title>
      </cc:Work>
    </rdf:RDF>
  </metadata>
  <g
     inkscape:label="Ebene 1"
     inkscape:groupmode="layer"
     id="layer1"
     transform="translate(0,-552.36218)">
    <g
       id="1" />
    <g
       id="1-1" />
    <g
       id="1-7" />
    <g
       id="g4174"
       transform="matrix(0.57739452,0,0,0.57739452,-618.53644,856.08827)">
      <path
         sodipodi:nodetypes="csssssccsssccsscsccccscccccscscccccscscsscccscsccccccsccccssccccscscscccccccccsccccccscccscsssscccccsccc"
         inkscape:connector-curvature="0"
         id="path3042"
         d="m 1389.736,266.38455 c -0.943,-1.31244 -1.7146,-2.89062 -1.7146,-3.5072 0,-3.52427 -3.048,-9.33372 -7.5926,-14.4712 -4.4191,-4.99573 -5.016,-6.07122 -5.0843,-9.16262 -0.088,-3.99422 1.8317,-6.78676 9.3418,-13.58654 2.4651,-2.23199 7.8983,-7.32092 12.0737,-11.30863 7.3699,-7.03854 16.9342,-13.75601 27.0563,-19.00299 2.7155,-1.40755 5.1749,-2.89622 5.4653,-3.30797 0.752,-1.06606 -0.492,-4.96397 -2.9083,-9.11324 -1.141,-1.95932 -2.8691,-5.09363 -3.8402,-6.96499 -0.9711,-1.87137 -2.9311,-4.25763 -4.3555,-5.30281 -3.9208,-2.87674 -8.6464,-7.77848 -9.9242,-10.29382 -0.6272,-1.23491 -2.2804,-3.3038 -3.6737,-4.59749 -3.1155,-2.89296 -3.7574,-5.28417 -3.1,-11.54813 0.7697,-7.33423 4.5572,-9.47374 27.6857,-35.9202 7.0799,-8.0956 13.5179,-18.898374 14.3068,-20.07761 0.7889,-1.179154 6.1273,-5.784 11.8632,-10.232987 5.7358,-4.448907 12.1557,-9.687655 14.2665,-11.641643 13.4436,-5.470739 23.5896,-14.064282 34.134,-22.656744 2.2072,-0.890024 4.1983,-1.58633 4.4246,-1.547521 0.2263,0.03848 1.7075,-0.431993 3.2915,-1.046393 1.584,-0.614483 5.6572,-1.107016 9.0516,-1.094628 7.9589,0.02902 12.8953,-0.697733 14.074,-2.07187 4.1605,-0.98854 6.5889,-2.916462 10.2007,-4.863986 9.9473,-2.82097 22.6922,1.489365 30.2941,5.856175 2.7688,1.600154 7.1406,5.988464 7.8601,8.162751 0.2918,0.881939 0.073,2.785123 -0.6078,3.437501 -0.6572,0.631341 -0.7953,2.336336 -0.3162,3.308616 1.8028,3.657839 1.3351,3.138902 2.5722,4.72714 1.789,1.801432 1.5436,3.917379 1.8581,5.614304 0.1986,1.071803 1.3036,1.369277 1.1232,3.23696 -0.4127,4.271332 -5.4016,2.404449 -7.9007,4.629104 -2.3479,2.090026 -0.3499,1.333795 -1.0236,5.719668 -7.4967,2.691144 -15.2492,-0.689815 -20.1046,-0.06938 -1.229,0.173329 -2.9854,0.380655 -3.903,0.460765 -2.4669,0.215478 -4.7663,2.801866 -6.5259,7.34041 -0.8589,2.215369 -2.0512,4.49825 -2.6495,5.073223 -0.5983,0.574891 -1.0879,1.721982 -1.0879,2.549131 0,0.920052 -1.2778,2.119977 -3.2915,3.090651 -1.8103,0.872811 -3.2914,1.333575 -3.2914,1.024011 0,-0.309564 -0.4349,-0.144895 -0.9664,0.365794 -0.5315,0.510689 -1.0289,3.435038 -1.1052,6.498558 -0.076,3.06351 -0.4132,6.7707 -0.7487,8.23832 0,11.46146 0.7279,34.78107 6.7075,52.48009 0.6808,1.9594 1.3291,4.49182 1.4408,5.62764 0.1118,1.13582 0.5027,3.37287 0.8688,4.97122 1.0168,4.43862 1.2043,5.80575 1.5494,11.29867 0.2079,3.30809 1.0649,6.59296 2.458,9.42106 1.1764,2.38818 2.1388,5.10405 2.1388,6.03529 4.4342,15.94355 3.6757,32.57166 6.7406,51.87196 -1.1089,5.67231 -4.5926,8.02637 -9.248,7.27368 -5.9168,-0.99767 -6.6963,-2.5664 -9.37,-5.01346 -1.046,-0.0409 -1.4284,-6.36044 -0.3846,-7.57693 0.5428,-0.63269 1.1178,-4.07414 1.2779,-7.6476 0.1602,-3.57355 -1.6905,-8.13424 -1.239,-9.30406 0.039,-4.13711 -0.01,-13.96828 -1.0855,-17.72507 -4.8804,-15.35659 -9.5073,-25.11522 -14.6651,-33.31322 -2.4917,-3.81972 -5.6201,-7.05555 -7.4549,-11.19795 -2.6584,-6.13454 -3.9109,-4.56226 -4.3746,5.49128 -0.1556,3.37393 -0.7515,6.99156 -1.3241,8.03913 -0.5726,1.04756 -1.1521,4.70928 -1.2876,8.13724 -2.6467,17.20979 -5.1186,26.86551 -6.2563,43.37082 -0.4734,6.28528 -7.9945,18.571 5.9845,22.56272 5.5558,2.33226 13.0365,5.23675 20.3195,6.70959 4.0471,7.59226 -4.1247,4.34716 -8.9842,5.31227 -2.9313,0.58215 -9.2349,0.25332 -10.2032,-0.36628 -0.4526,-0.28959 -3.1224,-0.69567 -5.9331,-0.90237 -4.458,-0.32787 -9.5221,-1.1332 -12.1701,-1.93537 -0.4525,-0.13712 -1.7486,-0.53263 -2.88,-0.87891 -1.1315,-0.34627 -3.6743,-0.83806 -5.6508,-1.09284 -5.05,-0.65106 -6.2105,-2.17567 -6.3546,-8.34889 -0.078,-3.34285 -0.8739,-7.11015 -2.275,-10.76966 -1.1853,-3.09562 -2.3706,-7.21522 -2.6342,-9.15468 -0.2635,-1.93953 -0.5815,-4.30629 -0.7067,-5.25963 -0.1252,-0.95334 -0.5271,-2.22971 -0.8933,-2.83635 -0.777,-1.28784 -1.1119,-3.44107 -1.6597,-10.67538 -0.2199,-2.90264 -0.8228,-7.55489 -1.3398,-10.33832 -0.5171,-2.78352 -1.2107,-8.40413 -1.5414,-12.49028 -0.6113,-7.5541 -0.9953,-9.96385 -1.7048,-10.70118 -0.2179,-0.22643 -0.4767,0.55809 -0.5752,1.74329 -0.098,1.18528 -0.6833,2.71851 -1.2999,3.40723 -0.6166,0.6888 -1.3806,2.33039 -1.6978,3.64815 -0.3172,1.31767 -1.2817,3.35833 -2.1434,4.53471 -0.8617,1.17647 -1.3679,2.34554 -1.1249,2.59804 -5.1422,8.34022 -15.7717,12.69476 -21.6347,17.86693 -1.4464,1.29899 -2.8964,2.35146 -3.2224,2.3387 -0.3261,-0.0128 -1.1793,0.50221 -1.8962,1.14446 -5.4127,3.46613 -14.3964,10.79622 -20.6474,12.17238 -2.997,0.58197 -7.5387,2.24711 -9.6621,3.54247 -1.4315,0.87341 -1.8515,1.90728 -1.8515,4.55857 0,4.20429 1.4605,10.66857 4.1324,11.99059 1.0408,0.51487 1.8922,5.29682 1.8922,5.59782 0,0.55083 16.1828,5.28484 18.8673,6.2192 2.2641,0.78806 1.6898,2.51723 -1.2343,3.71682 -1.9469,0.79868 -6.2931,0.98733 -15.9772,0.69354 l -13.3029,-0.4035 c -0.5715,-0.79538 -1.1431,-1.59118 -1.7148,-2.38614 z m 100.3322,-118.19301 c 0.8219,-0.47579 3.6732,-12.22179 2.8715,-12.25316 -0.7921,-0.031 -18.7473,7.39932 -19.585,8.19434 -0.5459,0.51794 4.1257,4.15343 6.9152,6.84083 2.8328,1.98957 5.2244,5.16486 6.8164,7.74656 1.128,-2.93376 1.3875,-7.49291 2.9819,-10.52857 z"
         style="fill:#000000" />
      <path
         sodipodi:nodetypes="cccccscccc"
         inkscape:connector-curvature="0"
         id="path3047"
         d="m 1537.5971,255.97147 c 0.4242,1.48861 0.5309,2.73488 1.5429,3.66045 2.232,0.78671 6.5841,1.15427 2.4245,-1.08063 -0.4281,0.10431 -1.9401,1.19887 1.396,3.28734 4.3733,-0.25814 4.5357,-0.91184 1.7633,-1.84122 -0.4412,0.093 1.0329,3.00034 2.9388,2.61303 6.3691,-1.29431 1.1685,-1.81475 0.9551,-1.79939 -1.0901,-0.26514 1.2613,1.69822 4.7756,2.02369 2.4131,-0.92097 2.8772,-7.54765 2.6083,-6.40006 l -18.5147,-2.08387"
         style="fill:#000000;stroke:#000000;stroke-width:0.82287049px;stroke-linecap:butt;stroke-linejoin:miter;stroke-opacity:0" />
    </g>
    <path
       style="fill:#000000;stroke:#000000;stroke-width:0.48969752px;stroke-linecap:butt;stroke-linejoin:miter;stroke-opacity:0"
       d="m 722.52786,961.63924 13.85081,-68.75904 8.71856,-48.97225 c -1.00641,-0.374 -1.77617,-0.94513 -2.28787,-1.73135 -0.82449,-0.33873 -1.64887,-0.0913 -2.47336,-1.23666 1.18289,-0.55307 1.56993,-1.44719 2.22594,-2.22601 -1.32409,-0.57757 -2.54824,-0.8153 -3.46264,0 -2.75493,-1.73996 -3.53523,-2.03189 -5.19398,-2.96802 l -1.2367,-2.72068 c -3.14204,-1.92232 -6.1904,-4.00061 -8.8423,-6.73988 -2.63986,-3.47611 -6.34083,-7.30049 -10.44989,-14.53089 0,0 -7.41996,-3.95736 -7.91466,-4.9467 -0.49462,-0.98933 -0.2473,-2.96801 -1.2367,-2.96801 -0.98932,0 -3.9573,-1.48402 -3.9573,-1.48402 l -0.24737,-2.47333 c 5.87806,-7.91472 9.83879,-15.82942 18.05547,-23.74413 3.42865,-4.50564 7.04467,-8.26186 11.13005,-10.1407 3.49427,-4.10027 5.95735,-5.58398 8.65675,-7.66738 l 1.73134,-2.47336 4.45199,-1.23666 4.94668,-0.49467 2.96805,-1.23669 1.23665,0 4.45204,-0.24733 4.45205,-2.226 3.95727,0 2.66327,-2.08113 c 1.82823,-3.21505 1.18781,-7.97301 1.29414,-12.26427 l -1.97864,-3.71003 c -0.78625,0.76052 -1.57238,0.66133 -2.35851,0.26234 l 0.62717,-2.98302 -1.73141,-0.49467 -1.48393,-1.23668 -1.97871,-2.22601 0,-1.73133 2.47329,1.97867 -0.2473,-2.72068 2.47335,1.23667 0.24728,-0.49466 -1.73121,-2.47336 2.22593,0 c -0.22333,-2.8512 -0.25483,-6.086 -0.24729,-9.39871 l 3.46262,-3.95734 c 2.61031,-1.31166 3.6774,-4.30926 8.04202,-4.52448 l 7.0004,-1.52645 c 2.97623,0.3967 4.88931,0.97056 6.4757,1.5989 2.68221,0.9069 4.1338,1.81379 5.19404,2.72067 l 0,1.48402 -1.48399,0 c 0,0 -0.68018,0.742 0.12365,0.86566 0.80382,0.12367 2.16422,0.24733 2.16422,0.24733 l 0.12366,0.86567 -0.55654,0.0618 -0.0615,0.9275 -0.0615,0.68017 1.73137,0.86567 1.97868,1.66951 2.16412,0.98934 -1.11293,0.55651 -1.17483,0.43283 -0.0615,0.80384 -1.29853,-0.61834 -0.86563,-0.742 -0.371,1.17484 1.79323,1.484 -1.66959,-0.30917 0,1.05118 0.30911,1.85501 0.0615,1.97867 -0.24735,1.11301 0.12371,2.10235 0.68011,6.05969 -0.12365,4.32835 -1.17481,4.9467 c -1.19543,2.29413 -2.39092,2.97352 -3.58635,4.20468 l -3.27722,1.23668 0.1237,3.89551 7.85286,4.51386 1.484,0.12368 1.36042,1.36034 15.33464,6.30703 2.10241,2.59701 1.36035,3.33901 7.17263,7.29637 c 3.467,4.75573 5.56586,9.05546 7.66744,13.35608 l 4.08098,3.09167 c 0.47303,5.47899 1.55306,11.05913 0.74201,16.32409 l -0.61836,3.95735 0.12371,6.55437 c -0.53085,1.70019 -1.48406,2.55572 -2.47334,3.33902 -1.23664,0.83227 -2.47335,0.82729 -3.70999,0.74201 -2.36797,-1.2597 -4.97269,-2.28253 -8.03839,-2.84436 l 0.24729,31.65882 -2.96798,31.65885 -9.27511,-2.96802 c 1.96882,30.73605 1.26811,61.22942 -0.37093,91.63748 l -2.47341,4.08103 -1.23664,0.61833 c -0.24653,4.02868 0.45495,7.92103 1.60765,11.74838 2.18483,0.96745 4.36962,2.83015 6.55439,5.19403 l 0,2.226 c 1.27596,1.27202 2.37335,2.00844 4.08104,4.57575 l 0,1.855 1.484,2.4733 -0.86565,2.4734 0,2.226 c -1.73134,1.5761 -3.46269,2.0378 -5.1941,2.4733 -2.67942,0.1752 -5.35889,0.3809 -8.03839,-0.1236 0,0 -4.94669,-2.597 -4.94669,-3.0918 0,-0.4946 -0.49459,-2.1022 -0.49459,-2.1022 l -5.07039,-6.0598 c -0.38704,-2.50758 -0.71068,-5.20545 -0.8657,-8.40936 l 0.8657,-1.23662 c 0.32656,-4.189 0.74244,-8.35616 -0.74199,-12.98509 -10.58492,0.64093 -20.96919,0.88078 -29.92751,-1.73137 l 0.2473,3.58633 0.4947,6.05971 0.61835,5.9361 c -6.55051,2.66411 -13.03561,5.06651 -20.0341,9.5223 -3.87492,0.7367 -7.74977,1.3846 -11.62474,-0.6183 -0.50567,-1.81377 -0.97008,-3.62758 -0.98928,-5.4414 0.45019,-1.68165 0.92005,-3.3307 1.85499,-4.20466 l -0.4947,-1.11299 c 0.808,0.30293 3.95746,-2.53512 4.08103,-2.72064 0.34267,-0.51476 2.96801,0.24732 2.96801,0.24732 l 1.11299,-2.72072 c 0,0 3.9574,-3.71002 4.45204,-3.71002 0.49471,0 1.2367,0.61835 1.36028,0 0.12372,-0.61836 3.46278,-3.95737 3.46278,-3.95737 -0.0324,-1.68492 -0.12138,-3.14201 0,-5.44135 z"
       id="path3850"
       inkscape:connector-curvature="0"
       sodipodi:nodetypes="cccccccccccssccccccccccccccccccccccccccccccccccccsccccccccccccccccccccccccccccccccccccccccccccccccccccccccccsccccccccccccccsccssccc" />
    <path
       style="fill:#000000;stroke:#000000;stroke-width:0.97973782px;stroke-linecap:butt;stroke-linejoin:miter;stroke-opacity:0"
       d="m 1146.5422,1012.4988 c -0.7422,0 -8.8454,-1.7319 -8.8454,-1.7319 -2.345,-1.0366 -4.6378,-1.7336 -7.2988,-4.8247 l -2.598,-6.92786 -3.9587,-3.46391 c -1.1055,-1.76257 -2.265,-3.03632 -3.2166,-6.18546 0,0 -0.6183,-3.58762 -0.371,-4.32989 0.2473,-0.74226 1.6082,-4.82473 1.6082,-4.82473 1.0771,-13.80457 1.4796,-28.9581 1.2371,-45.4018 l -2.9691,5.19585 -36.9893,-0.86598 1.9793,-66.18515 14.969,-16.57723 4.8246,-0.12372 c 0,0 -1.9794,-3.34018 -1.4844,-4.08243 0.4948,-0.74227 1.7318,-3.71133 1.7318,-3.71133 l 0,-4.20615 c 0,0 0.9898,-3.21647 0.9898,-3.71133 0,-0.49483 -0.2474,-6.0618 -0.2474,-6.0618 l -1.8558,-0.74228 c -2.0812,0.34689 -1.3803,-26.16152 0.495,-26.96889 0.4545,-0.19571 0.8659,-2.59794 2.8452,-5.93812 1.9795,-3.34019 1.9029,-4.21161 1.9795,-3.34019 0.1236,1.40991 1.6082,-26.57584 1.6082,-27.46375 l 1.1134,-1.23711 c 0,0 1.9793,-4.08244 1.9793,-6.55666 0,-2.4742 -0.2474,-5.69068 0.2475,-6.55665 0.4949,-0.86598 1.6082,-3.95875 1.6082,-3.95875 0.8799,-8.90716 4.4885,-17.81432 7.1752,-26.72149 8.7188,-2.67453 15.6602,-4.90473 26.7215,-8.16489 l 7.5463,-4.701 6.5567,-4.94842 1.2371,-1.97938 0.7423,-11.87621 1.4845,-1.48453 1.6084,-6.9278 c 1.9342,-4.99154 4.4983,-8.18363 10.3915,-11.1958 2.4059,-0.93418 10.6597,-1.27135 16.2062,3.40204 5.2181,5.20516 6.1018,8.87143 7.1752,12.7422 0.7662,5.67613 -0.5269,9.06397 -1.1135,13.23702 -1.5258,5.04779 -3.0514,7.92266 -4.5773,10.88654 l -4.7008,5.56697 -5.0723,5.6907 -0.866,1.2371 16.9484,12.61848 -0.7422,20.90709 -0.2475,17.81432 7.7938,0.61855 0.2474,2.3505 -5.5671,0.86598 0.4949,4.45358 -2.4742,3.4639 1.1135,4.82471 -1.9795,6.55666 -5.1958,3.83502 -5.9382,-0.98967 -4.4535,-1.48453 -0.6185,37.48431 c 0,0 -0.7423,7.79376 -0.7423,8.65973 0,0.86598 -1.1133,9.03087 -1.1133,9.03087 l -2.1032,0.24743 -3.4638,22.02048 -3.9588,13.11332 -0.4948,9.77315 -1.8557,9.77314 c -2.0619,10.90297 -4.1237,14.46944 -6.1855,21.27821 l -4.4536,6.06181 c 0,0 -0.6187,13.11332 -0.4949,13.60818 0.1238,0.49484 -0.3711,6.18552 -0.3711,6.18552 l 1.2371,2.72164 -3.3403,0.74226 1.7322,4.82471 1.4844,3.34019 0.9897,3.21647 11.1339,7.17523 2.9692,1.36083 c 1.1958,0.36798 2.3917,0.87237 3.5876,1.97937 0.9253,2.95088 -0.9947,2.81943 -1.8558,3.83495 l -7.4225,2.96907 -6.433,-0.24742 c 0,0 -6.1857,-1.85558 -6.9278,-2.2268 -0.7422,-0.37104 -5.3194,-3.95866 -5.3194,-3.95866 -1.3567,-1.27529 -3.6738,-1.39774 -5.8145,-1.73196 l -1.9795,0.24742 c -0.2434,1.85801 -1.3688,3.18678 -0.1237,5.93804 2.3798,3.46814 4.9156,6.95852 6.1855,10.26799 0,0 2.7218,5.6907 2.9691,6.1856 0.2474,0.4948 0.6186,3.4639 -0.2473,3.7113 -0.866,1.1134 -3.5257,1.9175 -3.5257,1.9175 -0.9486,0.3712 -1.7113,0.8659 -3.3403,0.6804 z"
       id="path3876"
       inkscape:connector-curvature="0"
       sodipodi:nodetypes="ccccccscccccccsccsccsssccsscccccccccccccccccccccccccccccccsccccccccsccccccccccccsccccccccc" />
    <g
       id="g4005"
       transform="matrix(0.62717737,0,0,0.62717737,235.17738,440.91)">
      <path
         sodipodi:nodetypes="cscccccccsccssscccccsscccsccccscscscssscccssccccsccccscccccccccccsscc"
         inkscape:connector-curvature="0"
         id="path3827"
         d="m 603.08589,906.8381 c -1.62636,-3.3873 -2.9568,-9.54444 -2.9568,-13.68278 0,-9.48202 -6.00255,-31.58368 -11.63283,-42.83278 -2.86786,-5.73047 -4.07499,-12.83845 -3.62562,-21.35132 0.37069,-7.01864 0.83814,-16.1589 1.03887,-20.31184 0.15155,-5.76435 -11.21719,-23.82281 -14.95544,-27.11194 -4.38127,-3.76271 -4.70669,-3.6917 -6.53917,1.43017 -1.03939,6.10216 -2.47137,10.43795 -7.0265,13.89136 -5.96543,5.9307 -8.75365,8.7428 -13.57138,15.38117 -3.31818,4.64785 -14.00954,18.61229 -23.75859,31.03194 -16.62241,21.17589 -19.94355,25.42283 -15.28065,29.77322 6.30491,3.98939 8.32131,17.68468 17.08522,18.56172 6.08419,3.91235 9.93877,5.10146 9.80869,9.60801 -0.16868,5.85693 -2.41817,6.54022 -17.84942,5.02883 -12.48027,-1.22228 -14.32935,-2.12787 -18.69941,-9.15672 -3.23632,-5.2054 -6.70711,-7.81077 -10.4331,-7.83212 -9.01117,-0.0511 -16.14914,-2.50304 -17.57868,-6.03836 -4.17366,-8.39569 8.1633,-23.75691 10.54224,-28.05858 1.30898,-2.28518 3.18207,-7.2871 4.16213,-11.11546 0.97996,-3.82835 1.93465,-7.48269 2.12152,-8.12075 3.77168,-12.88624 27.1452,-38.00558 31.641,-41.76387 5.20364,-4.35039 8.52648,-10.56718 8.53123,-27.1298 0,-8.68688 1.16081,-21.4483 2.57438,-28.35859 2.17313,-10.62473 1.96109,-13.20296 -1.37253,-16.69859 -6.4203,-6.73257 -4.71325,-35.67005 2.43636,-41.30122 2.59891,-2.04689 2.73851,-4.8685 0.67157,-13.57418 -2.79785,-11.78506 -3.15753,-33.0489 -0.81329,-48.11383 0.79404,-5.10446 2.46957,-17.43131 3.72303,-27.39314 1.34546,-10.69108 3.88621,-19.79724 6.20095,-22.22464 4.44334,-10.02814 10.72393,-4.59091 20.61364,-13.8439 6.06462,-6.09288 5.95685,-19.87208 6.68574,-23.23406 3.72504,-17.18282 20.455,-34.27189 33.04706,-33.75634 17.04174,0.69792 29.14699,7.16274 29.14699,15.56608 0,2.53299 1.44583,5.91075 3.31945,7.32771 1.13373,0.85755 -1.16335,3.91931 -0.85823,5.96364 0.43424,2.91072 2.77521,5.2279 4.77913,12.84377 -0.44726,3.04269 -3.16177,0.22432 -3.875,2.19718 -0.66258,1.83264 0.1397,4.14554 0.26238,5.11128 0.14542,1.14495 -2.26841,1.71741 -1.86579,2.70514 2.11644,5.19147 -3.2965,10.00383 -1.76956,10.31242 -3.12601,2.9664 -7.76861,5.07296 -11.09609,2.71609 -3.2543,0.0598 -3.37117,0.2933 -6.83783,2.06431 -1.25705,2.72367 -1.61779,2.24011 -1.61779,4.91996 0,2.67985 1.30897,6.11469 2.90921,7.63327 1.60002,1.51835 3.1551,4.07639 3.45588,5.68453 0.30077,1.6079 2.28481,7.47224 4.40908,13.03171 2.12416,5.55924 3.07842,11.30177 2.12046,12.76119 -1.41061,11.71801 -3.38925,29.92466 -4.6335,41.98849 -1.08382,10.08828 1.67014,9.4958 4.06304,13.63671 4.49104,7.77137 11.75222,14.70036 18.41956,16.98499 12.08886,17.58207 -3.55698,25.2492 -7.75094,26.0494 -3.33521,-0.15598 -5.90895,-1.21267 -8.9345,-4.39971 -3.02565,-3.18728 -9.07685,-9.73841 -13.44711,-14.55842 -4.37027,-4.81979 -7.94586,-7.67156 -7.94586,-6.3372 0,1.33435 -2.27075,7.01098 -5.04649,12.61477 -2.77543,5.60355 -5.1385,13.25678 -5.25071,17.00694 1.66517,11.13379 16.11361,32.90112 18.56393,37.60465 7.29555,13.78486 10.46228,24.42281 12.35822,41.51746 0.41204,5.39543 -0.40685,17.21343 -0.0857,18.19768 1.50579,4.50214 3.78002,39.08169 3.86484,58.76384 0.0423,9.94026 0.53007,10.67298 9.56556,14.38788 5.23622,2.1527 12.85275,6.01562 18.43501,5.71957 5.58247,-0.29629 14.16109,1.12042 15.47895,1.89213 11.36176,4.52372 7.23834,11.37323 0.99952,12.31013 -1.32737,-0.27657 -15.46583,-0.40046 -33.86837,2.08424 -1.34472,0.18099 -5.47534,0.67751 -7.0447,1.60862 -1.56945,0.93109 -5.482,4.39053 -11.36324,5.15551 -9.84264,1.2803 -10.92794,0.90118 -13.64964,-4.76757 z"
         style="fill:#000000" />
      <path
         sodipodi:nodetypes="ccccccccccc"
         inkscape:connector-curvature="0"
         id="path3829"
         d="m 538.37108,570.46911 c -17.34516,16.36238 -43.4242,28.96051 -48.68549,42.77319 -2.65919,7.64602 -8.02042,14.55949 -1.08889,24.80592 7.76682,18.21251 13.74662,26.25069 20.14862,36.69206 7.62383,9.80663 15.24776,19.46641 22.87159,21.18838 l 7.62393,-11.36939 -20.69327,-26.35627 c -1.88653,-8.68082 -8.38931,-20.192 -7.62394,-26.35626 l 3.26731,-10.8526 c 7.44245,-2.24647 14.8848,-3.5261 22.32725,1.03358 z"
         style="fill:#000000;stroke:#000000;stroke-width:2.97076821px;stroke-linecap:butt;stroke-linejoin:miter;stroke-opacity:0" />
      <path
         sodipodi:nodetypes="cccccccc"
         inkscape:connector-curvature="0"
         id="path3880"
         d="M 567.66539,902.11767 C 606.6032,768.7861 651.55171,635.45452 681.48025,502.12295 l -2.90561,-1.78121 33.07022,-83.84613 -17.73373,88.87568 -4.66163,-1.21819 -113.13907,400.68235 z"
         style="fill:#000000;stroke:#000000;stroke-width:1.7642262px;stroke-linecap:butt;stroke-linejoin:miter;stroke-opacity:0" />
      <path
         style="fill:#000000;stroke:#000000;stroke-width:1.13409293px;stroke-linecap:butt;stroke-linejoin:miter;stroke-opacity:0"
         d="m 629.16916,707.90476 c 2.11475,0.28094 3.74872,0.83002 5.47428,0.0588 2.21987,-2.38985 5.07335,-7.6898 -0.036,-3.65816 -0.10259,0.59847 0.45064,3.11081 4.92211,0.0398 2.07436,-5.67046 1.3369,-6.2346 -1.35974,-3.23996 -0.12511,0.60884 4.36001,0.34131 4.91662,-2.28084 1.85977,-8.76222 -1.6529,-2.47318 -1.75052,-2.19508 -0.93363,1.23263 2.8391,-0.66235 5.17964,-4.92645 0.16044,-3.55617 -7.96225,-7.78034 -6.6591,-6.8104 l -12.79743,22.26207"
         id="path3047-1"
         inkscape:connector-curvature="0"
         sodipodi:nodetypes="cccccscccc" />
    </g>
    <g
       id="g4167"
       transform="matrix(0.52803589,0,0,0.52803589,-548.86431,867.3729)">
      <path
         sodipodi:nodetypes="cccccccccccccsscccsccccccccccccccccccccssscccccccc"
         inkscape:connector-curvature="0"
         id="path3056"
         d="m 1229.2037,251.52095 c -6.7193,-4.26342 -10.5525,-6.22174 -17.0123,-11.75048 l -7.1384,-6.72776 c -3.9529,-6.45558 0.7757,-5.44308 4.787,-10.30575 0.1508,-0.23591 8.3038,-2.26186 22.6972,-8.69828 2.9879,-3.91417 4.8441,-7.62351 4.4306,-11.96823 0.191,-9.95924 1.1653,-9.27883 -0.8401,-13.16512 l -15.5585,-19.1492 c -2.8626,-5.18625 -0.3244,-17.14275 2.684,-22.329 9.8922,-9.33117 16.0588,-12.73423 28.333,-18.51312 5.5614,-2.61839 12.619,-8.92463 20.7504,-11.69283 8.4254,-4.58626 10.0648,-3.10901 24.8294,-10.89687 10.8873,-2.70508 19.6333,-1.12751 29.0531,-0.89763 0,0 1.1759,-0.34371 5.3165,-3.64302 1.9859,-1.58245 4.9288,-5.632214 8.2329,-7.282344 11.0411,-5.514102 17.7618,-3.717323 26.215,1.350767 9.6639,7.905007 10.3652,17.107497 8.3778,24.235787 -2.6104,19.56233 -8.0786,13.24977 -8.5655,22.90252 3.5458,8.18998 3.4606,16.97265 8.4813,25.37335 2.8213,4.72072 6.8454,9.69879 15.0321,15.18598 l 20.5638,20.85417 -0.2051,16.81576 -21.5429,-15.55875 -25.1333,-21.54284 -13.1651,-17.95238 -11.9683,-21.5429 -20.346,19.1492 -4.1588,31.89121 6.5524,35.13106 2.3937,29.92068 -5.0896,3.44528 c -2.8882,-2.68558 -5.947,-5.303 -7.4771,-8.5318 -1.3493,-7.08124 -2.3375,-14.16241 -4.1889,-21.24365 -7.1217,-5.96705 -11.8062,-13.96502 -15.5587,-22.73971 l -2.3937,-27.52699 0,-13.16511 c -4.3883,-3.99949 -8.7767,-2.28057 -13.1651,0 -4.4367,2.7898 -5.4589,9.83592 -6.5825,16.75556 l 5.3857,15.55875 c 0.6895,0.68953 9.2781,33.21463 8.3778,37.10159 -1.0803,4.66388 10.3607,15.55875 15.148,16.75557 4.7873,1.19688 2.1382,2.90072 5.1981,6.58259 5.0834,6.11685 -8.5018,-2.60214 -8.5018,-2.60214 l 0.7221,7.68873 c -4.7264,-5.75997 -5.9813,1.51101 -22.0749,-4.91133 -7.3041,-2.31904 -9.3417,-27.1038 -9.3417,-27.1038 l -9.4507,-22.75212 c -7.1758,1.03355 -7.1689,9.4374 -24.3597,17.48155 -5.5749,6.21283 5.1697,9.73458 5.2768,14.34096 2.7266,2.94878 -1.9624,7.28726 -5.02,5.67209 z"
         style="fill:#000000;stroke:#000000;stroke-width:3.35111332;stroke-linecap:butt;stroke-linejoin:miter;stroke-miterlimit:4;stroke-opacity:0;stroke-dasharray:none" />
      <path
         sodipodi:nodetypes="ccccc"
         inkscape:connector-curvature="0"
         id="path3826"
         d="m 1374.5109,117.02093 c -0.1112,4.27736 3.2936,13.28475 2.4582,17.07201 -1.5648,6.87481 -8.6231,18.01623 -11.8832,11.42747 l -17.6532,-0.89763 z"
         style="fill:#000000;stroke:#000000;stroke-width:2.6808908;stroke-linecap:butt;stroke-linejoin:miter;stroke-miterlimit:4;stroke-opacity:0;stroke-dasharray:none" />
      <path
         sodipodi:nodetypes="ccc"
         inkscape:connector-curvature="0"
         id="path3834"
         d="m 1227.098,249.81611 c 2.3412,2.57318 4.6814,7.91955 8.6739,5.74997 2.1692,-2.47098 -2.5467,-7.38947 -3.0431,-9.85368"
         style="fill:#000000;stroke:#000000;stroke-width:6.70222664px;stroke-linecap:butt;stroke-linejoin:miter;stroke-opacity:0" />
      <path
         sodipodi:nodetypes="cccccccccccc"
         inkscape:connector-curvature="0"
         id="path3830"
         d="m 1278.4656,264.30538 c -2.1878,0.0898 6.402,5.04484 9.1258,6.73219 7.6241,3.15722 8.6195,0.83972 5.9842,-0.8977 1.4667,1.95068 3.846,2.89831 5.6849,2.24404 1.4668,-1.54587 -0.6542,-1.14695 -1.047,-2.69282 -0.02,1.15238 2.9702,2.69081 5.6901,2.30295 1.9331,-0.53752 1.7223,-1.19112 1.1917,-2.90139 1.8343,1.45713 3.9032,-0.10121 3.3824,-1.50097 -1.2301,-2.18358 -1.5457,-0.95419 -3.2328,-2.05222 1.1691,0.56835 -0.5965,0.99636 2.5806,0.56098 5.3857,-1.82187 -10.0608,-7.30771 -15.5961,-10.3227 z"
         style="fill:#000000;stroke:#000000;stroke-width:1.3404454;stroke-linecap:butt;stroke-linejoin:miter;stroke-miterlimit:4;stroke-opacity:0;stroke-dasharray:none" />
      <path
         sodipodi:nodetypes="cccccccccccc"
         inkscape:connector-curvature="0"
         id="path3832"
         d="m 1320.7697,258.1825 c 2.9288,0.33913 14.4749,1.26263 14.4206,1.83413 -1.3333,2.00772 -4.3631,1.27952 -7.4241,0.50266 4.5072,1.22102 15.1426,1.41009 13.4284,3.76987 -3.4955,2.29759 -16.8628,-2.17514 -15.2101,-2.26193 17.0365,2.4504 13.4824,4.7752 13.4824,4.7752 -2.775,0.94079 -9.7499,-1.73923 -14.4921,-2.7646 6.3081,1.28193 14.3529,3.35808 11.4199,4.52387 -2.0735,0.58443 -10.1678,-1.49842 -12.2838,-3.2672 1.4319,0 5.4443,3.01593 3.6879,2.7646 -6.8453,1.09776 -12.8237,-5.76358 -12.2394,-5.90614 z"
         style="fill:#000000;stroke:#000000;stroke-width:1.93869317;stroke-linecap:butt;stroke-linejoin:miter;stroke-miterlimit:4;stroke-opacity:0;stroke-dasharray:none" />
    </g>
    <g
       id="1-2"
       transform="translate(0,308.2677)" />
    <g
       id="g4011"
       transform="matrix(2.1197846,0,0,2.1197846,-1553.1369,-2031.1701)">
      <path
         sodipodi:nodetypes="ccccccccccccccccccccssccccccccscccccccccccccccccccccccccccccccccccccsccccccccccccccccccccccccccccc"
         inkscape:connector-curvature="0"
         id="path4200"
         d="m 1170.7668,1432.9372 c -0.841,-1.3068 -1.9662,-1.9029 -3.283,-2.0203 l -4.1669,-0.3788 -2.6516,-1.7678 -0.8839,-2.2728 0.3788,-3.7881 0.1263,-2.3991 9.849,-15.6574 8.0812,-12.3744 7.3236,-11.1116 1.6415,-1.6415 1.894,2.1465 5.4296,8.7126 1.3889,5.0508 c 0,0 3.4093,3.788 3.6619,4.5457 0.2525,0.7576 3.2829,7.071 3.2829,7.071 l 3.0305,6.0609 c 0,0 3.4093,4.9245 3.7881,5.9347 0.3788,1.0101 2.9042,4.9245 2.9042,4.9245 0,0 1.5152,2.0203 1.7677,2.5254 0.2526,0.505 0.8839,1.7677 0.8839,2.2728 0,0.5051 -0.1263,4.1669 -0.1263,4.7982 0,0.6314 2.5254,1.389 2.5254,1.389 l 4.0406,-0.1263 0.7577,-2.2728 5.0507,0 c 1.6922,0.085 3.3139,-0.01 4.672,-0.7576 0,0 4.0406,-3.1568 4.5457,-3.4093 0.505,-0.2525 2.6516,-2.3991 3.1567,-3.0305 0.5051,-0.6313 -0.3788,-2.6516 -0.3788,-2.6516 -0.2191,-0.7667 -1.8774,-1.2676 -2.5254,-0.8839 -0.6519,0.386 -2.9042,1.5152 -2.9042,1.5152 l -4.6719,0 c 0,0 -3.1568,-0.1262 -3.6619,-0.3788 -0.505,-0.2525 -1.6415,-1.894 -1.6415,-1.894 l 1.7678,-1.2627 c 0,0 -5.8084,-8.0812 -6.4397,-8.7126 -0.6314,-0.6313 -8.5863,-9.849 -8.7126,-10.6066 -0.1262,-0.7576 -0.8839,-8.8388 -0.8839,-8.8388 l 16.2888,-9.7227 -7.955,-18.6878 -2.2728,-1.8941 -8.4601,3.1567 -2.4903,-3.0422 -2.1429,-0.4464 c 0,0 0.4465,-4.9107 0.089,-5.2679 -0.3571,-0.3571 -2.5,-1.3393 -2.5,-1.3393 l 2.2457,-22.9867 -0.2525,-14.8997 -2.7779,-7.8287 0.505,-10.354 2.2729,0 1.894,0.2525 1.7678,-2.9042 0,-0.6314 0.7576,-0.6313 0,-1.894 c 0.8889,0.2576 2.3065,0.9168 2.2728,0.3788 -0.2321,-1.2939 -0.3123,-3.2264 -0.3788,-4.672 1.0511,-1.1968 1.9771,-2.6644 1.8822,-3.8612 -3.5719,-8.7748 -11.0508,-9.2889 -18.1709,-4.9776 -1.4687,2.1421 -1.5623,2.9092 -2.0203,4.0406 -0.3554,2.7779 0.034,5.5558 0.3788,8.3337 l -2.7779,4.4195 c -2.4122,2.1196 -4.7475,4.3355 -8.0812,5.3033 l -5.6821,3.1567 c -1.4108,3.3251 -1.2196,6.6502 -1.2627,9.9753 l -4.4194,10.1015 c 0,0 -2.1466,9.3439 -2.1466,9.9752 0,0.6314 -2.0203,14.6473 -2.0203,14.6473 l 0.2525,8.3337 1.8941,2.0203 -0.6314,2.6517 -1.2627,3.4092 -0.6313,2.0204 4.2931,3.2829 2.6517,0.2526 1.3889,-3.5356 1.8941,-4.2931 1.0101,-1.5152 0.8839,1.3889 -2.3991,6.566 -3.4093,8.8388 -0.2525,3.1568 -9.9753,14.6472 -10.6066,18.5615 -2.3991,6.6923 -1.6415,3.283 -1.5152,1.389 c -0.7713,1.1452 -0.669,2.3997 -0.5051,3.6618 l 2.0203,1.7677 5.9347,1.2627 0.7576,-1.0101 2.7779,0 2.1466,2.3991 c 2.1887,0.5776 4.3773,0.7777 6.566,1.0101 2.0959,-0.097 3.943,-0.5674 5.8084,-1.0101 1.0707,-0.6123 1.1934,-0.9889 1.3892,-1.6415 z"
         style="fill:#000000;stroke:#000000;stroke-width:1px;stroke-linecap:butt;stroke-linejoin:miter;stroke-opacity:0" />
      <path
         sodipodi:nodetypes="ccccccccc"
         inkscape:connector-curvature="0"
         id="path4221"
         d="m 1190.1427,1277.6768 24.1072,8.3929 0.3571,-1.25 -5,-2.1429 2.3214,-9.2857 c -5.8375,-0.8623 -8.2681,-2.3634 -10.3571,-3.9286 l -5.3816,7.7755 -6.355,-1.7227 c 0.011,0.3466 -0.5168,0.7953 0.308,2.1615 z"
         style="fill:#000000;stroke:#000000;stroke-width:1px;stroke-linecap:butt;stroke-linejoin:miter;stroke-opacity:0" />
      <path
         style="fill:#000000;stroke:#000000;stroke-width:0.3640978px;stroke-linecap:butt;stroke-linejoin:miter;stroke-opacity:0"
         d="m 1163.9493,1368.2445 c 0.021,0.7484 -0.06,1.346 0.2478,1.8988 0.7996,0.6301 2.4728,1.3115 1.0578,-0.224 -0.1783,0 -0.8791,0.3361 0.2269,1.7063 1.7426,0.3902 1.8703,0.1029 0.8725,-0.6581 -0.1823,-0.012 0.1128,1.5293 0.8985,1.5702 2.6278,0.1371 0.6364,-0.7152 0.551,-0.733 -0.4021,-0.2518 0.3293,0.9446 1.6775,1.5084 1.0378,-0.1503 1.8682,-3.2067 1.6502,-2.6995 l -7.0671,-3.1427"
         id="path3047-8"
         inkscape:connector-curvature="0"
         sodipodi:nodetypes="cccccscccc" />
    </g>
    <g
       transform="matrix(0.17731248,0,0,0.17731248,348.51985,879.5371)"
       id="g3973">
      <path
         sodipodi:nodetypes="ccccccccccccccccccccccscccccccccccccccccccccccccscccscccccccccccccccccccccccccccsccsccccccccsccc"
         inkscape:connector-curvature="0"
         id="path2996"
         d="m -202.85714,565.93361 25.71428,-10.71428 34.28572,-9.7549 c 28.78548,-11.27941 58.887996,-19.92475 85.224074,-36.10296 l 31.91878,-39.85643 c 31.7485104,-36.70852 54.598167,-65.63054 100,-114.28571 l 48.571426,-102.85715 28.88832,-41.87672 33.96883,-58.12328 c 10.86669,-10.84282 21.49711,-22.04004 42.85714,-17.14285 l 85.71428,14.28571 c 71.46305,16.01105 104.62752,38.98547 148.57143,60 C 447.22301,148.92302 442.83917,114.024 409.79809,58.487383 L 381.63352,45.425291 c -39.31575,25.843708 -79.15145,24.387401 -113.06209,41.222606 -25.62274,9.981529 -52.47636,13.808653 -80,14.285713 C 168.33925,108.12078 155.26336,97.523374 140,92.362183 L 57.142857,-4.7806745 13.622191,-45.683143 c 1.462676,-4.30236 24.949502,-27.880578 14.841554,-14.184189 l 6.745465,-15.454316 26.933647,-14.459029 c 0,0 -2.142857,-14.999993 23.571429,-14.999993 25.714284,0 36.428574,-5 36.428574,-5 l 0.71428,2.14285 7.14286,10.714288 30,-2.142857 -10.71429,25.714286 6.42857,27.857143 -1.42857,23.571428 c 18.94266,12.3809523 26.46883,24.7619047 34.28572,37.142857 31.64647,-12.3352507 62.82547,-25.449611 100,-28.571428 l 17.14286,-45.714286 -1.42858,-14.285715 -22.85714,-14.285714 -2.85714,-28.571432 -12.85714,-14.28571 -4.28572,-28.57143 10,-62.85714 c 13.52137,-10.57068 15.22471,-17.50504 44.28572,-32.85715 15.38931,-5.65428 24.04426,-11.12733 52.85714,-17.14285 18.57143,-2.21296 37.14285,-1.8505 55.71428,-1.42857 15.84994,1.2715 32.21609,12.16508 48.57143,22.85714 7.16936,4.37218 14.5628,9.10289 28.32633,24.02574 11.49174,13.89618 10.8941,27.79236 15.74169,41.68854 1.92044,15.06745 2.01563,24.65911 1.64627,32.85715 1.99307,25.55324 5.51229,23.63587 8.57143,30 20.47619,-0.55122 40.95238,-5.74775 61.42857,1.42857 0,0 31.07143,5 77.14286,54.285713 8.72557,9.334329 44.69358,96.124188 44.69358,96.124188 10.77238,31.593443 17.68145,20.873717 35.30642,82.447239 l 29.33647,106.2045 c 0,0 14.94924,56.65265 16.37781,63.7955 1.42857,7.14286 7.14286,81.42857 7.14286,81.42857 L 790,409.50504 l -27.14286,55.71429 -25.71428,28.57142 -81.42857,15.71429 -40,-5.71429 -34.28572,-11.42857 -55.71428,47.14286 -62.85715,65.71429 L 435,664.50504 c -15.31565,14.57732 -12.16274,32.45369 -16.42857,50.71429 L 384.18418,738.81178 350,752.36218 315.71429,748.07647 304.28571,730.93361 317.14286,694.50504 370,617.36218 l 16.42857,-30.71429 17.85714,-12.85714 62.85715,-95.71428 5.71428,-75.71429 -61.42857,20 -44.28571,1.42857 -32.85715,12.85715 -10,55.71428 -51.42857,18.57143 -44.28571,-12.85714 c 0,0 -18.57143,-14.28572 -20,-21.42857 -1.42857,-7.14286 -4.28572,-22.85715 -4.28572,-22.85715 l -2.85714,-30 c 0,0 -1.42857,-51.42857 0,-57.14285 1.42857,-5.71429 -42.85714,38.57143 -42.85714,38.57143 l -57.14286,38.57142 -44.285713,55.71429 c 2.467328,12.85714 -0.111423,25.71429 -1.428571,38.57143 -6.495842,11.20862 -11.985833,23.92601 -17.142857,37.14286 0.497924,8.35054 -12.464232,11.13138 -31.4285719,11.42857 L -21.428571,574.12995 -45.714286,566.6479 c 0,0 -42.768481,10.91896 -52.857143,11.42857 -10.000001,0.50513 -53.931651,4.13988 -64.285711,4.54569 C -185.8876,584.33307 -185,581.28649 -205,582.36218 c -4.71118,-3.77418 -9.04563,-9.88149 2.14286,-16.42857 z"
         style="fill:#000000;stroke:#000000;stroke-width:1px;stroke-linecap:butt;stroke-linejoin:miter;stroke-opacity:0" />
      <path
         inkscape:connector-curvature="0"
         id="path2998"
         d="m 292.85714,373.79075 c 0,0 71.42857,-21.42857 74.28572,-27.14285 2.85714,-5.71429 4.28571,-17.14286 4.28571,-17.14286 L 300,295.21933 l -40,-27.14286 -25.71429,47.14286 45.71429,40 z"
         style="fill:#f9f9f9;stroke:#000000;stroke-width:1px;stroke-linecap:butt;stroke-linejoin:miter;stroke-opacity:0" />
      <path
         sodipodi:nodetypes="ccccccccccccscccccsc"
         inkscape:connector-curvature="0"
         id="path3768"
         d="M 46.467017,-62.846227 21.71828,-31.026423 17.172593,-12.3386 11.111678,-1.2269222 8.5862966,8.8746034 2.0203051,18.976129 l 0,13.131983 0,12.12183 5.0507623,8.586297 4e-7,12.626907 3.0304572,10.101525 5.050763,-3.030457 c 0,0 11.111678,-6.060916 11.111678,-10.101526 0,-4.04061 12.121831,-10.101525 12.121831,-10.101525 L 50.507627,42.209637 60.609153,33.118264 71.720831,30.087807 84.852814,16.955824 c 0,0 5.050763,-25.253814 3.030457,-29.294424 -2.020305,-4.04061 -41.416254,-50.507627 -41.416254,-50.507627 z"
         style="fill:#000000;stroke:#000000;stroke-width:1px;stroke-linecap:butt;stroke-linejoin:miter;stroke-opacity:1" />
    </g>
    <g
       id="g3977"
       transform="matrix(3.6534117,0,0,3.6534117,48.546408,-730.63728)">
      <path
         sodipodi:nodetypes="ccccccc"
         inkscape:connector-curvature="0"
         id="path3766"
         d="m 324.28571,447.36218 c 6.7668,-5.90022 5.52742,-10.53432 1.96428,-14.82143 -1.89095,-4.14277 -2.60022,3.51614 -2.70023,6.0083 l -1.94262,-0.11544 0,2.14285 1.60714,0 z"
         style="fill:#000000;stroke:#000000;stroke-width:1px;stroke-linecap:butt;stroke-linejoin:miter;stroke-opacity:0" />
      <path
         sodipodi:nodetypes="cccccccccc"
         inkscape:connector-curvature="0"
         id="path3768-6"
         d="m 323.66388,441.49492 -0.27107,11.00119 c 0.77531,1.52144 1.57774,3.01802 3.75,3.25892 l 22.54464,0.3125 c 5.78208,-1.0462 3.13979,-2.52442 2.8125,-3.88392 -8.43709,-1.08962 -16.86064,-2.28754 -25.625,-0.75893 l -1.25,1.02678 c -0.51658,1.21593 -0.89062,0.29389 -1.29464,-0.17857 -0.36898,-1.53274 -0.31538,-3.06547 0.0893,-4.59821 z"
         style="fill:#000000;stroke:#000000;stroke-width:1px;stroke-linecap:butt;stroke-linejoin:miter;stroke-opacity:0" />
      <path
         inkscape:connector-curvature="0"
         id="path3770"
         d="m 336.33928,456.46932 0,1.875 -6.78571,2.5 -0.0893,1.78572 6.875,-3.21429 0,9.64286 3.92857,0 0,-13.39286 -4.01786,0"
         style="fill:#000000;stroke:#000000;stroke-width:1px;stroke-linecap:butt;stroke-linejoin:miter;stroke-opacity:0" />
      <path
         sodipodi:nodetypes="ccccc"
         inkscape:connector-curvature="0"
         id="path3772"
         d="m 326.60714,469.50504 c 0.64967,-1.01618 22.92021,-0.76179 22.76785,0 2.63678,0.81964 2.88346,1.49965 2.5,2.14285 -9.01522,-1.48508 -18.30704,-1.72545 -28.03571,0 0.89986,-0.70936 -2.30694,-0.5308 2.76786,-2.14285 z"
         style="fill:#000000;stroke:#000000;stroke-width:1px;stroke-linecap:butt;stroke-linejoin:miter;stroke-opacity:0" />
      <path
         transform="matrix(0.6830986,0,0,0.6830986,82.484276,225.63729)"
         d="m 357.76785,361.87112 c 0,1.75055 -1.4191,3.16965 -3.16964,3.16965 -1.75055,0 -3.16965,-1.4191 -3.16965,-3.16965 0,-1.75054 1.4191,-3.16964 3.16965,-3.16964 1.75054,0 3.16964,1.4191 3.16964,3.16964 z"
         sodipodi:ry="3.1696429"
         sodipodi:rx="3.1696429"
         sodipodi:cy="361.87112"
         sodipodi:cx="354.59821"
         id="path3774"
         style="fill:#000000;fill-opacity:1;fill-rule:evenodd;stroke:#000000;stroke-width:0;stroke-linecap:round;stroke-linejoin:round;stroke-miterlimit:4;stroke-opacity:0;stroke-dasharray:none;stroke-dashoffset:0"
         sodipodi:type="arc" />
      <path
         transform="matrix(0.6830986,0,0,0.6830986,107.86375,225.61495)"
         d="m 357.76785,361.87112 c 0,1.75055 -1.4191,3.16965 -3.16964,3.16965 -1.75055,0 -3.16965,-1.4191 -3.16965,-3.16965 0,-1.75054 1.4191,-3.16964 3.16965,-3.16964 1.75054,0 3.16964,1.4191 3.16964,3.16964 z"
         sodipodi:ry="3.1696429"
         sodipodi:rx="3.1696429"
         sodipodi:cy="361.87112"
         sodipodi:cx="354.59821"
         id="path3774-4"
         style="fill:#000000;fill-opacity:1;fill-rule:evenodd;stroke:#000000;stroke-width:0;stroke-linecap:round;stroke-linejoin:round;stroke-miterlimit:4;stroke-opacity:0;stroke-dasharray:none;stroke-dashoffset:0"
         sodipodi:type="arc" />
      <path
         transform="matrix(0.6830986,0,0,0.6830986,95.899461,225.21316)"
         d="m 357.76785,361.87112 c 0,1.75055 -1.4191,3.16965 -3.16964,3.16965 -1.75055,0 -3.16965,-1.4191 -3.16965,-3.16965 0,-1.75054 1.4191,-3.16964 3.16965,-3.16964 1.75054,0 3.16964,1.4191 3.16964,3.16964 z"
         sodipodi:ry="3.1696429"
         sodipodi:rx="3.1696429"
         sodipodi:cy="361.87112"
         sodipodi:cx="354.59821"
         id="path3774-4-0"
         style="fill:#000000;fill-opacity:1;fill-rule:evenodd;stroke:#000000;stroke-width:0;stroke-linecap:round;stroke-linejoin:round;stroke-miterlimit:4;stroke-opacity:0;stroke-dasharray:none;stroke-dashoffset:0"
         sodipodi:type="arc" />
    </g>
    <g
       id="g3857"
       transform="matrix(2.910483,0,0,3.6534117,320.3857,-730.63728)">
      <path
         inkscape:connector-curvature="0"
         id="path3837"
         d="m 364.14598,477.20526 7.42381,0 0.55537,-2.16224 40.97784,0 1.73858,1.81371 7.8923,0 0,-3.20982 -18.0579,0 0,-30.35062 -3.41095,0 0,29.09474 -4.81545,0 0,-29.51337 -4.6148,0 0,28.46679 -0.58488,1.05685 -25.69941,0 z"
         style="fill:#000000;stroke:#000000;stroke-width:2.29525161px;stroke-linecap:butt;stroke-linejoin:miter;stroke-opacity:0" />
      <path
         inkscape:connector-curvature="0"
         id="path3839"
         d="m 364.54727,443.29631 58.18661,0 0,-2.51178 -58.5879,0 z"
         style="fill:#000000;stroke:#000000;stroke-width:2.29525161px;stroke-linecap:butt;stroke-linejoin:miter;stroke-opacity:0" />
      <path
         inkscape:connector-curvature="0"
         id="path3841"
         d="m 387.12868,441.44017 c -1.44271,-0.6406 -2.1023,-1.41173 0,-2.64317 4.24133,0.68463 8.465,0.55413 13.28554,0 l 0,-1.79735 -5.65621,0 4.20927,-24.84579 2.76231,0 c -0.72061,8.24411 -2.58818,15.91474 -4.47235,23.57707 l 5.65624,0 0,2.85464 3.28849,0 c 2.83229,1.31106 0.53623,1.98107 -0.13166,2.8546 z"
         style="fill:#000000;stroke:#000000;stroke-width:3.73580408px;stroke-linecap:butt;stroke-linejoin:miter;stroke-opacity:0"
         sodipodi:nodetypes="ccccccccccccc" />
      <path
         inkscape:connector-curvature="0"
         id="path3843"
         d="m 371.28293,440.8543 0,-1.18407 7.87412,-0.14793 1.39374,-0.83945 2.366,0 0,2.24551 z"
         style="fill:#000000;stroke:#000000;stroke-width:2.29525161px;stroke-linecap:butt;stroke-linejoin:miter;stroke-opacity:0" />
    </g>
    <g
       id="g3865"
       transform="matrix(3.6534117,0,0,3.6534117,29.171247,-680.81551)">
      <path
         sodipodi:nodetypes="cccccccccccccccccccccccccccccccccccccccccccccccc"
         inkscape:connector-curvature="0"
         id="path3845"
         d="m 357.9143,464.32457 c -2.23237,0.74075 -4.46475,0.43194 -6.69712,0 -3.7464,-2.40173 -5.01551,-5.733 -6.57538,-8.95515 l 2.80062,-3.96587 c -0.92721,-0.20694 -1.36408,-1.39408 -1.60328,-4.01051 1.50531,-1.18687 2.46359,-2.4263 5.4998,-3.15362 0.64942,-1.87633 0.41015,-0.32917 1.94825,-5.62897 l 0.60883,-2.68655 c -4.84346,2.93111 -18.38234,8.94125 -21.30907,-0.25586 2.77474,-12.65364 0.38011,-26.57033 21.79614,-34.6693 0.5305,-2.88885 0.91584,-5.8401 3.89651,-7.67586 3.14197,0.0792 6.33863,-0.70418 9.376,1.02345 1.97221,1.25273 3.33125,2.8736 4.50534,4.60551 l -1.33943,0.25586 -1.21767,0.12792 -0.60882,3.71002 -0.24353,1.15137 0,2.30275 -1.46119,0 -1.33943,2.94242 -1.46119,0.25586 -1.70474,-1.53517 c -3.01778,-0.12851 -4.19637,-0.14771 -5.23594,0.63965 -0.71188,2.8145 -2.20903,5.62896 0.12177,8.44345 l 1.70473,2.43069 1.94826,0.12794 c 2.73427,-1.35061 5.73641,-1.853 8.47068,-3.20361 1.84282,0.51561 4.2637,-0.49372 4.57907,1.24385 1.07092,0.69278 2.35081,1.41168 2.13066,1.94308 l 0.88295,1.3664 1.23299,1.58898 c -0.17673,0.89735 -0.19539,0.25269 -1.03824,0.27121 -3.00596,-0.98156 -1.32198,-0.77581 -2.83233,-1.28596 l 1.14449,2.62715 -0.46587,0.26563 -3.76876,-2.9401 -2.29909,-0.34146 c -3.18983,1.96819 -3.35605,2.39662 -4.2618,3.45413 l 2.67886,3.96586 0.24351,4.0938 -2.80062,4.47757 -7.91477,7.8038 -3.40947,5.50103 0.12177,3.19828 c 0.4825,1.34608 1.74485,2.46935 3.04416,3.58206 1.14739,0.89542 1.98996,1.87793 2.30539,3.01105 -1.05209,0.60208 -2.54155,0.49736 -4.49719,-0.3245 2.2279,1.40724 2.91599,2.81449 3.04415,4.22172 z"
         style="fill:#000000;stroke:#000000;stroke-width:0.98844856px;stroke-linecap:butt;stroke-linejoin:miter;stroke-opacity:0" />
      <path
         sodipodi:nodetypes="cccc"
         inkscape:connector-curvature="0"
         id="path3863"
         d="m 351.0687,418.29756 c -4.36701,0.97725 -3.67672,4.26755 -3.72136,7.73847 1.51011,0.23206 5.29497,0.77864 7.07461,-0.62593 -1.41127,-2.50058 -2.83523,-5.04385 -3.35325,-7.11254 z"
         style="fill:#e6e6e6;stroke:#000000;stroke-width:1px;stroke-linecap:butt;stroke-linejoin:miter;stroke-opacity:0" />
    </g>
    <g
       transform="matrix(0.53699471,0,0,0.53699471,1508.2588,640.75345)"
       id="g3030">
      <path
         sodipodi:nodetypes="cccccccccccccccccccccccscccccccsscccccccccccccccccscccccccsccccc"
         inkscape:connector-curvature="0"
         id="path2996-7"
         d="m 203.92857,693.79075 -40.35714,-2.14285 -2.85714,-2.85715 -1.78572,-1.78571 c 0.98945,-8.77459 5.2234,-16.57584 15.71429,-22.5 l -0.71429,-1.78572 15,-3.57142 0.71429,-6.07143 -2.85715,2.5 C 179.94456,654.07338 173.99343,649.30689 170,637.36218 c 1.90926,-19.29269 -2.77474,-47.74269 15,-45 l 0,-6.42857 -11.78571,0 1.07142,-15 -5.71428,3.75 -17.14286,-0.89286 -4.64286,-8.21428 -6.60714,-3.92857 -0.53571,-25.71429 c 0.47619,-17.5 6.90476,-25.71428 19.28571,-24.64286 l -1.78571,-8.92857 -6.42857,-6.07143 1.07142,-17.5 c 0,0 -5.35714,-2.14285 -4.64285,-3.57143 0.71428,-1.42857 0.71428,-22.14285 0.71428,-22.14285 5.16301,-8.95219 11.84599,-15.01644 26.42857,-6.07143 L 177.5,445.57647 c 8.2904,-6.45255 16.99249,-12.0229 28.57143,-11.42857 l 0,-2.85715 c -24.33838,-3.8043 -26.96448,-33.45785 -14.64286,-46.07143 29.04915,-27.71435 66.93993,-14.30924 74.82143,0.35715 21.99499,40.78326 -20.56055,41.89608 -17.67857,49.28571 0.7786,1.9964 10,-3.21428 11.42857,-1.78571 1.42857,1.42857 6.42857,3.21428 6.42857,3.21428 l 8.92857,6.78572 9.28572,1.42857 15.35714,0 c 7.20376,2.20628 16.06407,0.37218 13.92857,25.35714 l -2.14286,8.57143 -0.35714,16.78571 -6.07143,8.21429 -2.14285,5 0,6.42857 c 10.05236,-0.87138 19.28308,0.72217 18.57142,32.14286 l -1.78571,20 c -3.13616,4.43448 -6.75865,4.9784 -10.35714,5.71428 l -1.78572,6.78572 -22.5,-0.35714 c -4.01688,-3.85191 -7.70372,-11.99443 -12.14285,-10.35715 l 0,5.71429 c 0,0 -6.78572,4.28571 -7.14286,6.42857 -0.35714,2.14286 5,16.07143 5,16.07143 14.19011,19.16667 22.65701,38.33333 11.78571,57.5 -5.18618,6.24688 -8.03338,4.30729 -11.42857,4.28571 l -0.35714,2.5 c 8.21429,1.90696 16.42857,2.91764 24.64286,7.5 6.85541,8.36818 4.60231,12.18211 5.35714,17.5 l -4.28572,7.5 c 0,0 -20.71428,5.35715 -22.85714,5.35715 -2.14286,0 -41.07143,-1.78572 -41.07143,-1.78572 l -1.42857,-4.64286 -3.92857,-1.78571 1.07143,-6.07143 z"
         style="fill:#000000;stroke:#000000;stroke-width:1px;stroke-linecap:butt;stroke-linejoin:miter;stroke-opacity:1" />
      <path
         sodipodi:nodetypes="cccccccccccccsccsc"
         inkscape:connector-curvature="0"
         id="path2998-4"
         d="m 231.60714,676.11218 c 3.85357,-4.09081 7.55167,-8.35932 14.64286,-8.75 l -0.35714,-8.75 -5,-4.64286 L 240,631.82647 223.92857,629.86218 c -0.1003,-7.77559 -1.16743,-13.61752 0,-23.92857 l 7.5,-2.85714 -0.53571,-14.46429 -7.85715,0 -2.32142,13.39286 0.35714,10.17857 -1.96429,10.17857 c 0,0 0.71429,15.35714 0.71429,16.07143 0,0.71429 -0.17857,13.21429 -0.17857,13.21429 l -3.03572,3.21428 c 0,0 -0.20829,6.56503 0.53572,6.07143 1.72061,-1.14151 16.2657,12.17621 14.46428,15.17857 z"
         style="fill:#ffffff;stroke:#000000;stroke-width:1px;stroke-linecap:butt;stroke-linejoin:miter;stroke-opacity:1" />
      <path
         inkscape:connector-curvature="0"
         id="path3000"
         d="m 222.67857,525.57647 c 0.71429,-0.17857 5.89286,-1.60715 5.89286,-1.60715 l 2.5,4.28572 2.5,3.39286 -1.60714,4.28571 -3.21429,3.39286 1.25,24.82143 -6.42857,0.35714 -1.78572,14.64286 -1.25,-18.75 3.75,-8.92858 c 0,0 -0.35714,-11.96428 -0.71428,-12.85714 -0.35714,-0.89286 -0.89286,-7.32143 -0.89286,-7.32143 z"
         style="fill:#ffffff;stroke:#000000;stroke-width:1px;stroke-linecap:butt;stroke-linejoin:miter;stroke-opacity:1" />
      <path
         inkscape:connector-curvature="0"
         id="path3002"
         d="M 273.57143,500.75504 C 272.67857,501.29075 262.5,508.43361 262.5,508.43361 l -0.53571,3.75 -0.71429,4.46429 -0.53571,5.35714 -1.96429,4.82143 c 0,0 -0.35714,3.21428 0.35714,3.57143 0.71429,0.35714 2.5,1.07142 3.57143,1.07142 1.07143,0 2.32143,-1.07142 3.75,-0.17857 1.42857,0.89286 5,4.46429 5,4.46429 l 2.5,3.03571 c 0,0 -1.96428,-15.89285 -1.42857,-17.14285 0.53571,-1.25 2.5,-6.42858 2.5,-6.42858 0,0 6.42857,-0.17857 6.42857,-0.89285 0,-0.71429 0,-1.42857 0,-1.42857 l -6.07143,-1.25 z"
         style="fill:#ffffff;stroke:#000000;stroke-width:1px;stroke-linecap:butt;stroke-linejoin:miter;stroke-opacity:1" />
      <path
         inkscape:connector-curvature="0"
         id="path3004"
         d="m 184.64286,508.25504 -1.25,2.85714 -5.17857,0 0.17857,1.42857 5.89285,1.25 2.5,5.17857 -0.35714,12.85715 3.39286,-1.60715 5.35714,-0.17857 0,-3.39285 -1.42857,-2.5 -0.35714,-8.03572 z"
         style="fill:#ffffff;stroke:#000000;stroke-width:1px;stroke-linecap:butt;stroke-linejoin:miter;stroke-opacity:1" />
      <path
         inkscape:connector-curvature="0"
         id="path3006"
         d="m 213.57143,375.57647 c -0.71429,-3.21429 -6.42857,-44.64286 -6.42857,-44.64286"
         style="fill:none;stroke:#000000;stroke-width:1px;stroke-linecap:butt;stroke-linejoin:miter;stroke-opacity:1" />
      <path
         inkscape:connector-curvature="0"
         id="path3008"
         d="m 241.07143,375.21932 c 0.35714,-2.85714 7.14286,-43.21428 7.14286,-43.21428"
         style="fill:none;stroke:#000000;stroke-width:1px;stroke-linecap:butt;stroke-linejoin:miter;stroke-opacity:1" />
      <path
         transform="matrix(1.655,0,0,1,-135.05179,0.71428572)"
         d="m 213.92858,334.2767 c 0,6.38297 -3.19797,11.55739 -7.14286,11.55739 -3.94489,0 -7.14286,-5.17442 -7.14286,-11.55739 0,-6.38296 3.19797,-11.55738 7.14286,-11.55738 3.94489,0 7.14286,5.17442 7.14286,11.55738 z"
         sodipodi:ry="11.557385"
         sodipodi:rx="7.1428571"
         sodipodi:cy="334.2767"
         sodipodi:cx="206.78572"
         id="path3010"
         style="fill:#000000;fill-opacity:1;fill-rule:evenodd;stroke:#000000;stroke-width:3;stroke-linecap:round;stroke-linejoin:round;stroke-miterlimit:4;stroke-opacity:0;stroke-dasharray:none;stroke-dashoffset:0"
         sodipodi:type="arc" />
      <path
         transform="matrix(1.655,0,0,1,-94.373227,0.2283358)"
         d="m 213.92858,334.2767 c 0,6.38297 -3.19797,11.55739 -7.14286,11.55739 -3.94489,0 -7.14286,-5.17442 -7.14286,-11.55739 0,-6.38296 3.19797,-11.55738 7.14286,-11.55738 3.94489,0 7.14286,5.17442 7.14286,11.55738 z"
         sodipodi:ry="11.557385"
         sodipodi:rx="7.1428571"
         sodipodi:cy="334.2767"
         sodipodi:cx="206.78572"
         id="path3010-1"
         style="fill:#000000;fill-opacity:1;fill-rule:evenodd;stroke:#000000;stroke-width:3;stroke-linecap:round;stroke-linejoin:round;stroke-miterlimit:4;stroke-opacity:0;stroke-dasharray:none;stroke-dashoffset:0"
         sodipodi:type="arc" />
    </g>
  </g>
</svg>
